<?xml version="1.0" encoding="UTF-8" standalone="no"?>
<!-- Created with Inkscape (http://www.inkscape.org/) -->

<svg
   xmlns:dc="http://purl.org/dc/elements/1.1/"
   xmlns:cc="http://creativecommons.org/ns#"
   xmlns:rdf="http://www.w3.org/1999/02/22-rdf-syntax-ns#"
   xmlns:svg="http://www.w3.org/2000/svg"
   xmlns="http://www.w3.org/2000/svg"
   xmlns:sodipodi="http://sodipodi.sourceforge.net/DTD/sodipodi-0.dtd"
   xmlns:inkscape="http://www.inkscape.org/namespaces/inkscape"
   width="32"
   height="32"
   id="svg2"
   version="1.1"
   inkscape:version="0.48.4 r9939"
   sodipodi:docname="subscribers.svg">
  <defs
     id="defs4">
    <inkscape:perspective
       sodipodi:type="inkscape:persp3d"
       inkscape:vp_x="19.533823 : 14.850951 : 1"
       inkscape:vp_y="0 : 1000 : 0"
       inkscape:vp_z="51.533823 : 14.850951 : 1"
       inkscape:persp3d-origin="35.533823 : 9.5176185 : 1"
       id="perspective3031" />
    <inkscape:perspective
       sodipodi:type="inkscape:persp3d"
       inkscape:vp_x="19.533823 : 14.93934 : 1"
       inkscape:vp_y="0 : 1000 : 0"
       inkscape:vp_z="51.533823 : 14.93934 : 1"
       inkscape:persp3d-origin="35.533823 : 9.6060068 : 1"
       id="perspective3001" />
  </defs>
  <sodipodi:namedview
     id="base"
     pagecolor="#1e1e1e"
     bordercolor="#666666"
     borderopacity="1.0"
     inkscape:pageopacity="0"
     inkscape:pageshadow="2"
     inkscape:zoom="1"
     inkscape:cx="313.72601"
     inkscape:cy="41.301684"
     inkscape:document-units="px"
     inkscape:current-layer="g3081"
     showgrid="false"
     inkscape:window-width="1366"
     inkscape:window-height="713"
     inkscape:window-x="0"
     inkscape:window-y="0"
     inkscape:window-maximized="1" />
  <metadata
     id="metadata7">
    <rdf:RDF>
      <cc:Work
         rdf:about="">
        <dc:format>image/svg+xml</dc:format>
        <dc:type
           rdf:resource="http://purl.org/dc/dcmitype/StillImage" />
        <dc:title></dc:title>
      </cc:Work>
    </rdf:RDF>
  </metadata>
  <g
     inkscape:label="Layer 1"
     inkscape:groupmode="layer"
     id="layer1"
     transform="translate(0,-1020.3622)">
    <g
       id="g3081"
       style="fill:#ffffff"
       transform="translate(-1.2374369,1.1490485)">
      <path
         style="fill:#f2fff4;fill-opacity:1;stroke:#000000;stroke-width:0.67500000000000004;stroke-miterlimit:4;stroke-opacity:1;stroke-dasharray:none"
         d="m 19.280326,1020.8592 c -3.31446,0 -5.997625,2.6831 -5.997625,5.9976 0,2.3016 1.294985,4.2836 3.196847,5.2903 -4.897307,1.5255 -8.6043042,7.0276 -9.024727,13.7493 l 23.566138,0 c -0.419446,-6.7061 -4.109825,-12.1806 -8.996437,-13.721 1.933055,-0.9967 3.253428,-2.9939 3.253428,-5.3186 0,-3.3145 -2.683165,-5.9976 -5.997624,-5.9976 z"
         id="path3071"
         inkscape:connector-curvature="0" />
      <path
         inkscape:connector-curvature="0"
         id="path3860"
         d="m 11.786284,1031.0488 c -2.3501647,0 -4.2527027,1.9025 -4.2527027,4.2527 0,1.632 0.9182277,3.0373 2.2667717,3.7511 -3.4725078,1.0818 -6.1010086,4.9831 -6.3991155,9.7492 l 16.7099145,0 c -0.297414,-4.7551 -2.914131,-8.6368 -6.379055,-9.7291 1.370661,-0.7067 2.306891,-2.1228 2.306891,-3.7712 0,-2.3502 -1.902537,-4.2527 -4.252704,-4.2527 z"
         style="fill:#f2fff4;fill-opacity:1;stroke:#000000;stroke-width:0.67500000000000004;stroke-miterlimit:4;stroke-opacity:1;stroke-dasharray:none" />
      <path
         style="fill:#f2fff4;fill-opacity:1;stroke:#000000;stroke-width:0.67500000000000004;stroke-miterlimit:4;stroke-opacity:1;stroke-dasharray:none"
         d="m 22.434808,1035.493 c -1.873562,0 -3.390272,1.5167 -3.390272,3.3903 0,1.3011 0.732015,2.4214 1.807079,2.9905 -2.768296,0.8623 -4.863747,3.9724 -5.101399,7.772 l 13.321207,0 c -0.237099,-3.7908 -2.323156,-6.8853 -5.085406,-7.7561 1.092696,-0.5634 1.839062,-1.6923 1.839062,-3.0064 0,-1.8736 -1.51671,-3.3903 -3.390271,-3.3903 z"
         id="path3873"
         inkscape:connector-curvature="0" />
    </g>
  </g>
</svg>
